REM DIRINDEX 1\2\5,1\2\6,1\2\7,1\2\8,1\3\9,1\3\10,1\3\11,1\4\12,1\4\13,1\4\14,1\4\15,1\4\16
REM DIRNAME folder01,folder02,folder03,folder04,folder05,folder06,folder07,folder08,folder09,folder10,folder11,folder12,folder13,folder14,folder15,folder16
TITLE ""
FILE "1200_sec01_0129_0136.mp3" MP3
  TRACK 01 AUDIO
    TITLE "0:"
    INDEX 01 00:00:00
  TRACK 02 AUDIO
    TITLE "12:cjc034_04143"
    INDEX 01 00:00:19
  TRACK 03 AUDIO
    TITLE "0:"
    INDEX 01 00:01:15
  TRACK 04 AUDIO
    TITLE "13:cjc034_04144"
    INDEX 01 00:01:66
  TRACK 05 AUDIO
    TITLE "0:"
    INDEX 01 00:02:63
  TRACK 06 AUDIO
    TITLE "14:cjc034_04145"
    INDEX 01 00:03:19
  TRACK 07 AUDIO
    TITLE "0:"
    INDEX 01 00:04:19
  TRACK 08 AUDIO
    TITLE "15:cjc034_04146"
    INDEX 01 00:04:68
  TRACK 09 AUDIO
    TITLE "0:"
    INDEX 01 00:08:13
  TRACK 10 AUDIO
    TITLE "12:cjc034_04147"
    INDEX 01 00:09:57
  TRACK 11 AUDIO
    TITLE "0:"
    INDEX 01 00:10:74
  TRACK 12 AUDIO
    TITLE "13:cjc034_04148"
    INDEX 01 00:11:33
  TRACK 13 AUDIO
    TITLE "0:"
    INDEX 01 00:13:20
  TRACK 14 AUDIO
    TITLE "14:cjc034_04149"
    INDEX 01 00:13:55
  TRACK 15 AUDIO
    TITLE "0:"
    INDEX 01 00:14:70
  TRACK 16 AUDIO
    TITLE "15:cjc034_04150"
    INDEX 01 00:15:30
  TRACK 17 AUDIO
    TITLE "0:"
    INDEX 01 00:18:56
  TRACK 18 AUDIO
    TITLE "12:cjc034_04151"
    INDEX 01 00:20:16
  TRACK 19 AUDIO
    TITLE "0:"
    INDEX 01 00:21:33
  TRACK 20 AUDIO
    TITLE "13:cjc034_04152"
    INDEX 01 00:21:64
  TRACK 21 AUDIO
    TITLE "0:"
    INDEX 01 00:22:58
  TRACK 22 AUDIO
    TITLE "14:cjc034_04153"
    INDEX 01 00:23:12
  TRACK 23 AUDIO
    TITLE "0:"
    INDEX 01 00:24:31
  TRACK 24 AUDIO
    TITLE "15:cjc034_04154"
    INDEX 01 00:24:63
  TRACK 25 AUDIO
    TITLE "0:"
    INDEX 01 00:27:55
  TRACK 26 AUDIO
    TITLE "12:cjc034_04155"
    INDEX 01 00:29:19
  TRACK 27 AUDIO
    TITLE "0:"
    INDEX 01 00:30:32
  TRACK 28 AUDIO
    TITLE "13:cjc034_04156"
    INDEX 01 00:30:63
  TRACK 29 AUDIO
    TITLE "0:"
    INDEX 01 00:31:63
  TRACK 30 AUDIO
    TITLE "14:cjc034_04157"
    INDEX 01 00:32:29
  TRACK 31 AUDIO
    TITLE "0:"
    INDEX 01 00:33:40
  TRACK 32 AUDIO
    TITLE "15:cjc034_04158"
    INDEX 01 00:33:71
  TRACK 33 AUDIO
    TITLE "0:"
    INDEX 01 00:38:26
  TRACK 34 AUDIO
    TITLE "12:cjc034_04159"
    INDEX 01 00:39:62
  TRACK 35 AUDIO
    TITLE "0:"
    INDEX 01 00:41:12
  TRACK 36 AUDIO
    TITLE "13:cjc034_04160"
    INDEX 01 00:41:47
  TRACK 37 AUDIO
    TITLE "0:"
    INDEX 01 00:42:45
  TRACK 38 AUDIO
    TITLE "14:cjc034_04161"
    INDEX 01 00:43:05
  TRACK 39 AUDIO
    TITLE "0:"
    INDEX 01 00:44:30
  TRACK 40 AUDIO
    TITLE "15:cjc034_04162"
    INDEX 01 00:44:61
  TRACK 41 AUDIO
    TITLE "0:"
    INDEX 01 00:49:70
  TRACK 42 AUDIO
    TITLE "12:cjc034_04163"
    INDEX 01 00:51:28
  TRACK 43 AUDIO
    TITLE "0:"
    INDEX 01 00:52:51
  TRACK 44 AUDIO
    TITLE "13:cjc034_04164"
    INDEX 01 00:53:08
  TRACK 45 AUDIO
    TITLE "0:"
    INDEX 01 00:54:23
  TRACK 46 AUDIO
    TITLE "14:cjc034_04165"
    INDEX 01 00:54:56
  TRACK 47 AUDIO
    TITLE "0:"
    INDEX 01 00:56:04
  TRACK 48 AUDIO
    TITLE "15:cjc034_04166"
    INDEX 01 00:56:37
  TRACK 49 AUDIO
    TITLE "0:"
    INDEX 01 01:00:27
  TRACK 50 AUDIO
    TITLE "12:cjc034_04167"
    INDEX 01 01:01:66
  TRACK 51 AUDIO
    TITLE "0:"
    INDEX 01 01:02:71
  TRACK 52 AUDIO
    TITLE "13:cjc034_04168"
    INDEX 01 01:03:27
  TRACK 53 AUDIO
    TITLE "0:"
    INDEX 01 01:05:17
  TRACK 54 AUDIO
    TITLE "14:cjc034_04169"
    INDEX 01 01:05:58
  TRACK 55 AUDIO
    TITLE "0:"
    INDEX 01 01:06:61
  TRACK 56 AUDIO
    TITLE "15:cjc034_04170"
    INDEX 01 01:07:19
  TRACK 57 AUDIO
    TITLE "0:"
    INDEX 01 01:10:02
  TRACK 58 AUDIO
    TITLE "12:cjc034_04171"
    INDEX 01 01:11:35
  TRACK 59 AUDIO
    TITLE "0:"
    INDEX 01 01:12:46
  TRACK 60 AUDIO
    TITLE "13:cjc034_04172"
    INDEX 01 01:13:04
  TRACK 61 AUDIO
    TITLE "0:"
    INDEX 01 01:13:67
  TRACK 62 AUDIO
    TITLE "14:cjc034_04173"
    INDEX 01 01:14:25
  TRACK 63 AUDIO
    TITLE "0:"
    INDEX 01 01:15:35
  TRACK 64 AUDIO
    TITLE "15:cjc034_04174"
    INDEX 01 01:15:68
  TRACK 65 AUDIO
    TITLE "0:"
    INDEX 01 01:18:41
